<?xml version="1.0" encoding="UTF-8" standalone="no"?>
<!-- Created with Inkscape (http://www.inkscape.org/) -->

<svg
   width="866.02899"
   height="1000"
   viewBox="0 0 866.02899 1000"
   version="1.1"
   id="svg1"
   xml:space="preserve"
   xmlns="http://www.w3.org/2000/svg"
   xmlns:svg="http://www.w3.org/2000/svg"><defs
     id="defs1"><linearGradient
       id="swatch711"><stop
         style="stop-color:#000000;stop-opacity:1;"
         offset="0"
         id="stop711" /></linearGradient><clipPath
       clipPathUnits="userSpaceOnUse"
       id="clipPath2"><path
         style="display:inline;fill:#fc2913;fill-opacity:1;stroke:none;stroke-width:2.10852;stroke-dasharray:none"
         id="path3"
         transform="matrix(2.3713348,0,0,2.371325,-527.97313,-185.08077)"
         d="M 587.85546,394.32839 405.25177,499.75468 222.64807,394.32839 222.64808,183.47581 405.25177,78.049515 587.85547,183.47581 Z" /></clipPath></defs><g
     id="layer2"
     style="display:inline"><path
       style="display:inline;fill:#410085;fill-opacity:1;stroke:none;stroke-width:2.10852;stroke-dasharray:none"
       id="path2-5-4"
       d="M 587.85546,394.32839 405.25177,499.75468 222.64807,394.32839 222.64808,183.47581 405.25177,78.049515 587.85547,183.47581 Z"
       transform="matrix(2.3713348,0,0,2.371325,-527.97313,-185.08077)" /></g><g
     id="layer4"
     style="display:inline"><path
       id="path709"
       mask="none"
       style="display:inline;opacity:1;mix-blend-mode:normal;fill:#fc2913;fill-opacity:0.5;fill-rule:nonzero;stroke:none;stroke-width:0.999997"
       d="M 0.90820312,0 V 5.8730469 H 865.58008 V 0 Z m 0,42.572266 C 3.0739928,55.548469 38.669673,49.914062 49.351562,49.914062 H 203.49609 865.58008 v -7.341796 z m 0,42.574218 v 7.339844 l 384.62304688,-1.46289 146.80469,5.36914 80.74218,-3.884766 252.50196,-0.02148 V 85.146484 Z M 394.33984,123.37305 l -126.25,2.85547 -267.18163688,1.49023 v 8.80859 l 229.01171688,-0.0586 182.03711,-5.75586 133.5918,20.49414 105.69726,-14.54883 214.33399,-0.13086 v -8.80859 l -223.14258,0.0586 -102.76172,11.60743 z m -28.63086,32.96875 c -53.14241,-0.52327 -106.51955,8.73867 -159.27734,12.35156 -68.0686,4.66144 -137.250774,1.59766 -205.52343688,1.59766 v 10.27734 c 66.82716188,0 134.61092688,3.14803 201.11913688,-3.18555 62.92309,-5.9922 127.37732,-18.75733 190.84571,-12.71289 28.76756,2.73967 58.91105,8.02191 85.14453,20.68164 23.17436,11.18344 46.60486,32.24751 73.40234,33.00391 37.21265,1.0505 68.23749,-29.87612 104.23047,-35.90039 25.27144,-4.22974 50.85311,-1.88672 76.33789,-1.88672 h 133.5918 v -10.27734 c -69.08979,0 -142.92851,-7.33551 -211.39844,1.89257 -35.16973,4.74001 -66.85448,31.02113 -102.76172,30.32618 -25.81603,-0.49963 -48.68881,-17.93231 -71.93359,-27.1543 -28.96907,-11.49303 -60.14805,-16.03055 -91.01758,-18.14453 -7.57968,-0.51907 -15.16799,-0.79439 -22.75977,-0.86914 z m -11.05859,30.86718 c -74.75831,-1.59117 -152.4741,18.54621 -224.55664,25.40625 -31.245177,2.97361 -64.027848,0.25 -95.421875,0.25 -6.759947,0 -27.7740887,-3.45371 -32.2480469,2.35157 -8.6945995,11.28194 17.6464639,9.39258 21.9726559,9.39258 28.898958,0 57.821019,-1.42054 86.613286,-1.46876 109.65089,-0.18351 218.46133,-50.90665 327.37109,-12.70507 26.01244,9.12423 43.64385,27.72524 61.42969,47.9375 12.13776,13.79365 24.166,30.7711 44.26953,32.15429 16.16261,1.11205 31.34926,-8.75056 44.04101,-17.50976 22.52918,-15.5484 43.73667,-34.88501 70.46485,-42.94531 33.64856,-10.14721 69.70749,-7.03317 104.23047,-5.52149 34.11423,1.49374 68.61371,0.0586 102.76367,0.0586 -0.22212,-18.74011 -31.44938,-11.90548 -45.50977,-11.73829 -35.72239,0.42481 -71.45213,0.10831 -107.22461,1.19141 -15.30397,0.46334 -30.11316,-1.36361 -45.45117,1.74414 -25.80296,5.22808 -46.83195,19.8957 -67.5293,35.41211 -16.22086,12.16048 -35.73059,26.60133 -57.2539,22.82031 -21.585,-3.79186 -36.61779,-27.91548 -51.38086,-42.03125 -18.17661,-17.37958 -39.08657,-27.986 -63.125,-34.66797 -23.9441,-6.65572 -48.53564,-9.60046 -73.45508,-10.13086 z m -40.16992,32.65625 c -65.37166,1.25771 -131.05418,19.75397 -194.66211,30.80079 -39.530395,6.86527 -78.932047,6.24023 -118.91015688,6.24023 v 10.27539 c 34.32584088,0 68.72440688,1.47553 102.76171688,-3.5625 93.17525,-13.79141 177.85963,-45.76473 273.05469,-26.60547 31.74188,6.38851 67.84221,18.7845 88.57227,44.84961 16.96764,21.33443 29.74037,69.80607 62.63476,69.96484 20.95092,0.10119 39.54691,-13.65009 55.78516,-25.30664 26.86087,-19.28192 52.14985,-41.37435 83.67773,-52.82812 24.21054,-8.79549 51.03446,-6.51172 76.33789,-6.51172 h 121.84766 v -10.27539 c -28.66948,0 -58.01718,1.82756 -86.61524,-0.13086 -38.45927,-2.63375 -83.53184,-6.39862 -120.3789,7.02344 -27.71506,10.0956 -51.82396,31.73847 -74.86914,49.51562 -13.80368,10.64817 -31.56957,24.21787 -49.91407,24.2168 -31.95168,-0.002 -45.10012,-45.53146 -62.30078,-65.94531 -23.43944,-27.81819 -57.15322,-39.38149 -91.84179,-46.31836 -21.63304,-4.32611 -43.38914,-5.82158 -65.17969,-5.40235 z m -39.56055,32.2461 c -46.53776,1.419 -94.06688,17.7838 -137.48633,29.52929 -45.92528,12.42337 -89.048758,17.8379 -136.52538688,17.8379 v 11.74414 c 56.29928288,0 106.05135688,-9.81057 160.01562688,-25.57813 44.51649,-13.00704 97.12622,-31.49488 143.86719,-20.4375 27.05718,6.40088 50.16241,23.47036 76.33789,32.28125 20.22188,6.80687 45.02717,6.72476 61.65625,21.34766 23.82711,20.95254 30.02623,78.0134 67.52929,78.98047 22.42147,0.57819 42.10717,-11.92415 60.18946,-23.95703 28.21897,-18.77837 55.89854,-42.55211 88.08203,-54.2754 27.65295,-10.07294 56.215,-8.36132 85.14648,-8.36132 h 121.84766 v -11.74414 c -32.19899,0 -64.72517,1.35181 -96.89063,-0.0566 -34.66304,-1.51786 -73.8918,-5.95521 -107.16601,6.55273 -32.25042,12.1231 -60.5633,34.77627 -88.08203,54.99219 -15.57004,11.4381 -35.36771,26.99948 -55.78711,26.51367 -37.17134,-0.88446 -46.34703,-58.94846 -69.00196,-80.59766 -14.97325,-14.30849 -35.50622,-16.27705 -54.3125,-22.60742 -24.82302,-8.35561 -47.73956,-21.80644 -73.40039,-27.87695 -15.10361,-3.57303 -30.50694,-4.76011 -46.01953,-4.28711 z m -16.49804,37.64258 c -36.65081,-2.38252 -75.65961,13.70037 -109.24219,24.89453 -49.683015,16.56099 -95.773938,27.40429 -148.27148688,27.40429 v 13.21094 c 54.40527888,0 101.14079688,-13.36753 152.67382688,-29.39844 34.71611,-10.7995 71.54215,-27.62593 108.63477,-19.5332 26.045,5.68236 42.73252,29.62017 67.52929,38.52344 29.8137,10.70462 69.15983,1.48489 95.42383,20.58008 27.19254,19.77024 30.62988,70.81471 70.46485,71.84961 19.68446,0.51143 42.11232,-10.87778 58.7207,-20.36524 32.28563,-18.44308 62.82657,-42.84403 98.35937,-54.80469 27.14743,-9.13802 55.41827,-6.85156 83.67774,-6.85156 h 129.1875 V 342.05273 H 739.32812 c -29.45009,0 -58.36744,-2.02732 -86.61328,7.84571 -33.78064,11.80762 -63.69417,34.99569 -93.95507,53.5332 -17.35235,10.62989 -37.64296,22.79788 -58.72071,22.27344 -36.02118,-0.89628 -43.29943,-54.7468 -67.78515,-73.54102 -24.25737,-18.61895 -62.5982,-13.10986 -90.76368,-23.125 -24.6991,-8.78249 -41.32721,-31.11364 -67.52929,-37.06445 -5.11688,-1.1621 -10.30324,-1.88034 -15.53906,-2.2207 z m -32.19336,52.55664 C 193.18807,340.2313 157.40617,354.63725 127.1582,364.03516 84.764751,377.20661 45.313934,384.625 0.90820312,384.625 v 14.67969 c 47.64807888,0 92.19766988,-11.27715 137.99413688,-23.31836 28.97325,-7.61794 60.79229,-18.85888 91.01758,-12.40039 24.14922,5.16016 42.18263,24.35718 66.0625,30.33789 33.28881,8.33726 70.68386,-1.9278 101.29492,16.32226 28.02467,16.70811 37.7275,65.33918 74.86914,65.35352 23.00035,0.009 44.58757,-11.61219 64.59375,-21.61523 34.6732,-17.33657 68.11493,-38.92375 105.69727,-49.64844 27.05486,-7.72052 57.19962,-6.49805 85.14648,-6.49805 46.06887,0 91.99693,1.4668 137.9961,1.4668 V 384.625 h -133.5918 c -30.5436,0 -61.49741,-1.97305 -91.01758,7.38281 -33.35044,10.56975 -65.08212,30.45329 -95.42187,47.55664 -18.73061,10.55893 -42.32336,24.73017 -64.59375,24.14453 -39.35593,-1.0349 -44.98233,-50.77612 -73.40235,-68.66992 -28.84275,-18.16002 -69.37989,-7.50037 -101.29492,-16.51367 -24.28739,-6.85911 -41.36095,-28.68857 -66.06054,-34.25195 -4.58404,-1.03252 -9.24869,-1.66586 -13.96875,-1.96289 z m -36.5625,61.95898 c -46.18192,-0.81564 -93.656788,16.36852 -138.845708,22.30469 -17.767222,2.33395 -49.89350129,-8.7839 -49.91210888,15.30469 31.19298288,0 61.54465588,-0.43741 92.48437488,-4.82422 28.001442,-3.97016 55.285672,-11.62781 83.679692,-12.73438 30.05248,-1.17118 58.75723,11.21471 88.08203,15.46094 24.31059,3.52017 49.25461,0.12552 73.40039,4.74609 18.17797,3.47851 33.8938,11.55104 46.55859,25.30078 16.45378,17.86336 28.80821,43.65272 56.20508,43.97852 64.64219,0.7687 122.1614,-51.56199 183.50391,-66.82617 30.2377,-7.52421 63.0022,-5.10156 93.95312,-5.10156 H 865.58008 V 427.19727 H 720.24414 c -31.77912,0 -64.39424,-2.17412 -95.42187,6.09961 -38.17469,10.17957 -73.08934,31.23023 -108.63477,47.89453 -20.07521,9.41159 -44.78687,21.09963 -67.5293,19.27148 -33.56738,-2.69827 -46.12436,-48.20733 -74.87109,-62.5918 -27.2127,-13.61685 -54.99948,-7.19413 -83.67773,-11.30273 -27.71838,-3.97106 -53.13062,-16.80428 -80.74219,-20.76172 -6.53425,-0.93653 -13.10376,-1.42059 -19.70117,-1.53711 z m -37.55079,58.16602 c -25.93667,0.3084 -51.93716,5.43152 -77.806636,7.20312 -24.240661,1.66006 -49.099927,0.13281 -73.40039088,0.13281 v 16.14844 c 80.25500188,0 159.23719688,-5.6149 239.28906688,-0.13281 22.08373,1.5123 44.18634,-1.24622 66.06054,3.37695 17.01893,3.59707 33.36411,10.36589 45.88281,22.80664 17.25491,17.14744 29.44493,42.60256 56.88086,42.93946 28.46104,0.34945 55.06295,-11.99161 80.74024,-23.07032 36.77847,-15.86837 73.6865,-33.49204 113.03906,-42.01172 19.69166,-4.26316 38.87096,-2.68157 58.72266,-4.04101 67.66772,-4.63401 136.19959,0.13281 204.05664,0.13281 v -16.14844 c -54.13043,2.03548 -108.76778,0 -162.95313,0 -31.15298,0 -63.35128,-1.71993 -93.95312,5.02735 -41.26779,9.09887 -78.95152,28.76413 -117.44336,45.50781 -21.48166,9.34438 -45.10022,20.49374 -68.99805,19.9082 -21.7268,-0.53233 -33.32336,-17.93661 -47.03515,-32.27539 -15.97982,-16.71053 -34.1168,-30.55044 -57.19532,-35.22656 -23.19733,-4.70015 -47.03934,-1.46998 -70.46484,-3.07422 -31.9592,-2.1886 -63.27703,-7.58536 -95.42188,-7.20312 z m 504.72071,48.76757 c -26.75828,0.11555 -53.42359,1.87713 -78.99219,7.32227 -40.78421,8.68544 -79.19377,26.837 -117.44141,42.88672 -20.43612,8.57551 -44.81983,21.76376 -67.52929,21.31836 -42.40632,-0.83169 -57.77452,-55.64306 -98.35938,-65.24414 -33.12619,-7.83656 -71.77093,-5.14258 -105.69726,-5.14258 -62.72321,0 -125.210989,1.46875 -187.90820688,1.46875 v 16.14844 H 181.47461 c 31.87355,0 67.21115,-4.27985 98.35937,3.28711 41.95236,10.19173 57.30352,65.1966 102.76172,65.21093 26.18018,0.009 51.4288,-13.83709 74.8711,-23.83984 37.63799,-16.06003 75.72513,-32.44853 115.97461,-40.74805 35.24831,-7.26832 72.82646,-3.91015 108.63281,-3.91015 H 865.58008 V 513.8125 c -42.92933,0 -86.30352,1.8193 -129.1875,-0.0586 -25.94596,-1.13611 -52.79837,-2.66633 -79.55664,-2.55079 z m -442.07617,43.99219 c -15.24937,0.16442 -30.58364,1.18946 -45.0293,1.18946 H 0.90820312 v 16.14843 c 51.87269088,0 103.85791688,1.46875 155.61132688,1.46875 29.91892,0 61.81609,-4.62062 91.01758,3.35938 40.11104,10.96132 56.31457,63.6776 98.35742,64.16406 25.90555,0.29976 51.43039,-11.39442 74.87109,-21.39648 37.19802,-15.8723 74.40244,-33.85575 114.50586,-41.10157 42.94044,-7.75843 87.1845,-5.02539 130.6543,-5.02539 h 199.6543 v -17.61718 h -195.25 c -41.0019,0 -82.93331,-3.01546 -123.31446,5.0625 -39.52265,7.90618 -76.22116,24.42415 -113.03906,40.22656 -23.37954,10.03458 -47.39647,22.53525 -73.40039,22.23437 -43.63745,-0.50491 -59.66353,-54.57172 -101.29492,-64.73632 -14.10693,-3.44429 -29.27212,-4.14099 -44.52148,-3.97657 z m 575.94921,40.82617 c -46.12085,-0.0742 -91.98288,2.93555 -137.99414,2.93555 -46.30274,0 -92.07031,-3.20755 -137.99609,4.77149 -40.89236,7.10452 -79.64662,26.43566 -117.44141,42.83007 -21.84385,9.4753 -44.67308,20.17566 -68.99804,19.92383 -40.76979,-0.4221 -58.44252,-53.12291 -96.89063,-63.95898 -25.40652,-7.16042 -54.59837,-3.56641 -80.74219,-3.56641 H 0.90820312 v 17.61719 H 135.9668 c 25.68979,0 54.38565,-2.93171 79.27343,4.45703 16.1447,4.79305 30.11763,13.33128 41.94922,25.32227 16.07283,16.28936 31.1762,38.36574 56.40821,39.02929 30.82431,0.81064 62.42965,-15.22345 89.55078,-28.02539 32.31404,-15.25311 67.40695,-30.04494 102.76172,-36.25586 40.6064,-7.13354 80.95523,-2.07842 121.84765,-3.08008 32.31824,-0.79163 64.6016,-6.9305 96.89063,-7.31445 47.19518,-0.56127 93.81361,5.86719 140.93164,5.86719 v -17.61719 c -25.02422,0 -49.91865,-2.89541 -74.8711,-2.93555 z m -56.84765,33.67188 c -36.61526,0.82017 -72.46259,9.20032 -109.03906,11.70508 -43.42866,2.97406 -87.49879,-3.94648 -130.65625,3.18554 -44.3909,7.33583 -84.90014,26.50891 -126.25,43.3418 -23.88346,9.72258 -48.58362,21.45004 -74.86914,21.12891 -36.6461,-0.44769 -53.38851,-50.27329 -88.08204,-61.36719 -25.90168,-8.2825 -53.90135,-6.15625 -80.74218,-6.15625 H 0.90820312 v 19.08398 H 115.41406 c 25.39286,0 51.89459,-1.83327 76.33789,6.39454 38.17787,12.85103 52.30776,64.05698 96.89063,61.0039 21.51001,-1.47305 41.94882,-11.36293 61.65625,-19.24609 36.73646,-14.69502 73.06072,-32.10061 111.57031,-41.73047 52.28718,-13.07512 108.15754,-4.14514 161.48438,-6.48047 33.80322,-1.48036 66.0829,-15.11276 99.82617,-17.42578 33.01704,-2.2632 64.67318,5.17739 96.89062,10.98828 14.48869,2.61323 29.83406,3.11362 44.04102,6.49609 l 1.46875,-19.08398 c -38.76446,-0.32086 -77.26249,-9.99242 -115.97461,-11.6875 -5.26645,-0.2306 -10.51339,-0.26756 -15.74414,-0.15039 z m 1.37305,29.23828 c -4.45846,-0.0708 -8.96333,0.0351 -13.52344,0.34766 -37.25217,2.55355 -71.47688,21.02589 -108.63282,24.57617 -59.41898,5.67752 -118.97625,-6.51657 -177.63281,8.88672 -35.4832,9.31794 -69.10922,24.59756 -102.76172,38.95703 -18.87796,8.05529 -39.52443,18.92617 -60.18945,21.14648 -28.93551,3.10892 -44.04037,-20.61688 -62.28125,-38.75781 -12.57358,-12.50471 -27.57744,-21.50436 -44.88672,-25.73047 -37.23899,-9.09201 -79.371668,-4.2539 -117.441404,-4.2539 -11.529275,0 -33.199043,-4.21856 -43.5742191,0.88671 -5.6171561,2.76399 -3.40234378,14.522 -3.40234378,19.66602 H 97.796875 c 21.032485,0 43.190315,-1.50832 63.126955,6.53711 35.25552,14.22741 52.92099,63.24741 93.95312,62.4375 25.11307,-0.49576 49.43928,-14.81476 71.9336,-24.52148 40.34983,-17.41176 81.08855,-35.32363 124.7832,-42.3418 52.549,-8.44039 106.06995,4.10831 158.54687,-4.01367 46.60407,-7.21304 86.69662,-32.51966 135.06055,-30.33594 41.71389,1.88347 78.59344,28.97512 120.37891,30.76953 0,-4.90879 1.97391,-15.38037 -2.35547,-18.82031 -7.36472,-5.85171 -27.84939,-5.79584 -37.2832,-8.1543 -30.5122,-7.62806 -59.49782,-16.78595 -90.70703,-17.28125 z m -10.82422,26.68555 c -45.07614,1.57165 -87.92768,32.44306 -131.88477,40.15625 -58.48278,10.26209 -118.86155,-5.5826 -177.63281,7.39844 -36.15961,7.98665 -70.96235,21.8714 -104.23047,37.92578 -21.06221,10.16415 -45.18829,25.67386 -68.99805,27.38086 -40.41895,2.89781 -59.65091,-49.27732 -93.95312,-63.9668 C 104.547,716.02743 46.485505,728.13951 0.90820312,728.14453 v 20.55274 H 81.648438 c 19.069392,0 38.195802,-0.90326 55.785152,7.89257 32.86562,16.43491 49.73926,66.51227 89.55079,65.48828 19.74117,-0.50778 38.63176,-13.06005 55.78515,-21.63671 30.94358,-15.47188 61.99926,-31.30239 95.42188,-40.83985 68.53283,-19.55647 139.00643,-3.51703 208.46093,-14.24414 46.51377,-7.1841 85.34498,-40.17822 132.12305,-44.85547 53.51469,-5.35084 93.64007,44.44353 146.80469,46.72657 v -20.55274 c -45.17384,-8.51117 -86.33364,-38.37583 -132.12305,-40.9668 -3.02583,-0.17121 -6.0418,-0.19657 -9.04687,-0.0918 z m 0.39648,29.12695 c -3.40851,-0.0421 -6.88392,0.15175 -10.43555,0.61328 -50.88569,6.61251 -92.66305,43.69992 -143.86718,51.7793 -70.3097,11.09412 -142.1423,-5.77641 -211.39649,14.48047 -30.93642,9.04896 -60.25111,24.49641 -88.08203,40.48242 -17.55927,10.08592 -37.70003,25.12493 -58.7207,24.94922 -34.87813,-0.29157 -52.5779,-50.00126 -80.74219,-65.59571 C 95.066402,761.24545 41.339366,770.7168 0.90820312,770.7168 v 20.55273 c 35.91525688,0 85.36987288,-8.46091 117.44140688,10.95899 28.9568,17.53398 47.75375,70.75 85.14648,70.75 20.95605,0 40.48147,-16.81399 57.25391,-27.31836 29.34661,-18.37944 59.3019,-34.48068 92.48633,-44.83594 65.91294,-20.56825 135.84558,-0.18858 202.58789,-11.92578 26.9004,-4.73061 53.25419,-14.02146 77.80469,-25.90039 24.77405,-11.98718 50.04499,-27.88456 77.80664,-31.49219 30.10302,-3.91192 53.35389,18.25772 76.33789,33.82422 23.9283,16.20607 48.73179,25.93945 77.80664,25.93945 V 769.25 c -53.5368,-0.14751 -89.64585,-53.87512 -140.77344,-54.50586 z m -11.04102,32.47656 c -2.18845,0.008 -4.43135,0.14506 -6.73437,0.42774 -27.20191,3.33901 -50.65393,18.31253 -74.86914,30.02929 -30.39512,14.70694 -62.17451,26.70966 -95.42188,32.96485 -65.47203,12.31799 -133.30014,-9.59248 -198.18554,10.73437 -32.64817,10.22785 -61.68584,27.81766 -89.54883,47.28711 -16.19945,11.31948 -34.8884,28.56767 -55.78516,28.27735 C 157.43108,896.4444 142.89937,845.63382 116.88281,827.63867 84.741585,805.40723 37.85057,813.29102 0.90820312,813.29102 v 22.01953 c 34.09818188,0 76.39724488,-6.7998 105.69726688,14.57422 25.32346,18.47309 44.68971,72.0716 79.27344,72.02929 20.6715,-0.0252 40.16521,-17.19837 55.78515,-29.00976 25.27981,-19.11579 51.90282,-37.83517 82.21094,-48.02735 64.945,-21.84032 135.08628,0.52346 201.12109,-12.21484 36.63357,-7.06662 70.52339,-21.96639 104.23047,-37.44141 20.97386,-9.62922 42.87297,-23.65679 66.06055,-26.99804 41.29364,-5.95027 59.49008,32.14706 89.55664,51.90234 25.04734,16.45741 52.05089,15.18555 80.73633,15.18555 v -22.01953 c -26.43913,0 -51.16501,-3.53932 -73.40235,-19.14649 -25.08244,-17.60387 -45.58526,-47.03984 -78.41211,-46.92383 z m -16.91601,36.74219 c -2.38727,-0.0507 -4.86137,0.0716 -7.43359,0.38672 -26.29172,3.22063 -50.09651,18.4744 -73.40235,30.04492 -32.38087,16.07598 -67.19388,30.71701 -102.76172,37.87305 -65.2792,13.13381 -136.49896,-10.06911 -199.65429,11.95703 -31.57446,11.01205 -57.87564,31.807 -83.67774,52.41601 -13.49383,10.77801 -31.45629,27.6756 -49.91211,27.90821 -13.2046,0.16629 -23.34997,-10.33201 -31.18945,-19.6875 C 134.48331,907.75421 122.81188,887.52031 105.13281,873.50195 74.44592,849.16928 37.090201,855.86328 0.90820312,855.86328 v 23.48828 c 36.30081188,0 70.45359588,-4.19172 99.80468688,21.19727 22.48151,19.4467 40.61191,68.79787 74.89063,68.32617 20.04565,-0.2758 35.61312,-16.6296 49.9121,-28.71094 24.95453,-21.08427 51.01214,-42.81242 82.21094,-53.91406 23.28094,-8.28412 47.65755,-6.89844 71.9336,-6.89844 41.00674,0 82.86526,2.2188 123.31445,-5.58398 35.73892,-6.89404 69.83221,-22.36567 102.76172,-37.44141 22.08771,-10.11218 46.07821,-23.83843 70.46679,-27.01562 42.40319,-5.52394 53.16881,38.92177 83.67774,57.61133 30.36957,18.60418 71.7565,12.42968 105.69922,12.42968 v -23.48828 c -29.89864,0 -63.22994,3.87881 -89.55078,-13.35937 -27.33353,-17.90141 -43.37071,-57.78002 -79.17969,-58.54102 z m -26.26563,44.05469 c -2.4359,-0.004 -4.96343,0.18684 -7.59375,0.59765 -63.28539,9.88396 -117.31057,53.57688 -180.56835,66.22657 -58.62566,11.72348 -125.40893,-10.38447 -182.03516,9.78711 -32.06799,11.4234 -57.36653,34.55233 -82.62891,56.55859 -12.52926,10.91423 -28.65019,28.22266 -46.55859,28.22266 -32.05036,0 -52.56765,-49.87197 -73.408204,-68.69727 C 70.466097,896.03031 35.224054,898.4375 0.90820312,898.4375 v 24.95508 c 30.59851488,-0.0843 60.14915788,-4.40639 85.14453088,17.87109 18.790056,16.74709 32.170616,37.91489 49.914066,55.52539 8.58892,8.52444 19.39242,17.75024 32.29687,17.43164 20.37181,-0.503 36.35201,-18.98285 49.85547,-31.96875 21.14291,-20.33257 44.07811,-41.20569 71.99024,-51.43945 23.39177,-8.57632 47.43438,-7.41992 71.93359,-7.41992 37.37984,0 74.77972,1.30039 111.57031,-6.29102 39.55703,-8.16217 76.19661,-26.66821 113.03906,-42.5664 18.45553,-7.9639 38.66273,-18.27547 58.72266,-21.16602 43.17815,-6.22184 56.42884,42.8099 89.54883,59.38281 37.68773,18.85838 89.70837,10.64063 130.65625,10.64063 V 898.4375 c -34.88883,0 -81.40053,7.97588 -113.03906,-9.56445 -29.59972,-16.41006 -45.41848,-60.7882 -81.95704,-60.85547 z m -30.1875,43.95703 c -2.63061,-0.056 -5.37106,0.0908 -8.23437,0.46289 -59.63174,7.74902 -111.09746,50.12732 -170.29297,62.04102 -35.02006,7.04824 -70.08807,8 -105.69726,8 -25.47501,0 -48.83783,-3.43601 -73.40235,5.96679 -28.57625,10.93847 -51.17029,34.03801 -71.875,55.68949 -10.97752,11.4796 -23.65305,28.3534 -41.16406,28.9726 -33.76668,1.1942 -56.96555,-46.542 -78.054689,-66.5117 C 64.68184,941.03477 35.870931,941.00977 0.90820312,941.00977 v 24.95703 c 33.70451588,0 60.73236088,2.48628 86.61328088,26.55468 21.689046,20.17012 47.243286,64.19732 80.742186,64.19732 22.06779,0 35.9647,-20.1349 48.86914,-34.9668 17.68737,-20.3291 38.51777,-40.02432 64.16992,-49.57622 22.71349,-8.45782 45.56235,-5.02545 68.9961,-4.74805 29.11324,0.3445 59.50873,-1.42004 88.08203,-7.33789 31.8662,-6.59988 62.71828,-17.56514 92.48633,-30.62109 26.68423,-11.70349 54.70198,-26.66941 83.67773,-31.39258 42.92341,-6.99655 63.66141,48.22608 99.82617,62.82031 17.65717,7.12558 37.15276,5.07032 55.78516,5.07032 h 95.42383 v -24.95703 h -82.21094 c -18.25285,0 -37.21781,1.32317 -54.31641,-6.33008 -34.43694,-15.41369 -49.19706,-61.86446 -88.65625,-62.70508 z m -31.72265,44.21484 c -29.48753,1.67044 -57.02011,15.75415 -83.67774,27.12891 -34.6176,14.77118 -70.24948,27.27176 -107.16797,34.88476 -26.74306,5.5147 -54.96877,6.84766 -82.20898,6.84766 -22.58136,0 -44.9356,-2.22978 -66.0625,7.13672 -20.88006,9.2569 -37.78246,26.0913 -51.1543,44.2441 -9.98898,13.5604 -20.64665,32.5903 -38.39453,36.6153 -16.15393,3.6636 -33.51271,-6.7436 -45.50976,-16.4473 -25.62167,-20.7237 -45.361679,-52.5682 -76.337894,-65.86327 -12.653866,-5.4311 -27.41536,-7.02971 -41.103515,-7.09571 -4.021775,-0.019 -11.7638732,-0.96747 -14.6406254,2.51563 -3.9777879,4.8163 -1.50781248,17.88275 -1.50781248,23.85155 30.59737788,0 54.42198788,3.5386 79.27343788,23 28.706039,22.4802 59.587309,64.1552 99.826169,63.586 24.22462,-0.3426 35.10696,-21.6787 46.5293,-39.6094 10.76214,-16.8942 24.12253,-32.4626 43.01953,-40.4239 23.14944,-9.7528 48.95572,-5.9752 73.40234,-6.5742 21.94833,-0.5378 44.61066,-4.5272 66.0625,-9.0957 38.38621,-8.17482 74.94721,-22.76844 111.57032,-36.46677 18.10935,-6.77343 36.46108,-15.8094 55.78515,-18.57031 48.49019,-6.92808 65.23182,45.32844 105.69727,58.65038 23.41453,7.7086 49.06366,6.9707 73.40234,6.9707 36.7495,0 73.44478,-1.4668 110.10352,-1.4668 v -24.95702 h -96.89063 c -23.09618,0 -47.08658,0.97995 -68.99804,-7.43555 -34.54449,-13.26752 -50.96832,-63.69468 -91.01758,-61.42578 z m -37.76563,46.58203 c -2.95574,0.0137 -6.02263,0.23848 -9.21289,0.69922 -27.50753,3.97254 -54.90082,17.08343 -80.74023,26.82813 -28.09658,10.59587 -57.35062,19.38527 -86.61524,26.09177 -19.7319,4.5219 -39.97729,8.2487 -60.18945,9.6328 -22.61909,1.5489 -46.12096,-0.6504 -67.5293,8.377 -35.99993,15.1806 -37.10455,74.4444 -80.74218,75.3535 -43.24876,0.9009 -77.60341,-41.6884 -110.101566,-64.0039 -24.19089,-16.611 -46.479683,-18.127 -74.86914088,-18.127 v 26.4258 c 26.22008488,0 47.24712788,2.6861 70.46484388,15.961 38.163993,21.8207 73.074183,60.1101 120.378903,60.1132 20.32761,0 37.3332,-9.3126 48.60743,-26.1621 11.72033,-17.5162 16.87172,-38.7963 38.00585,-47.916 12.53625,-5.4097 27.78023,-3.9126 41.10547,-5.1816 20.27072,-1.9303 40.37772,-5.6818 60.18946,-10.3711 52.79187,-12.4953 103.62922,-39.1091 157.08007,-47.45704 50.7131,-7.9205 71.9173,44.30044 115.97461,56.37694 26.05481,7.142 54.01312,4.6367 80.74219,4.6367 H 865.58008 V 1027.623 H 748.13672 c -23.53764,0 -49.15122,2.122 -71.9336,-4.914 C 634.757,1009.9089 615.24438,962.56524 570.9082,962.77148 Z m -36.83789,45.64452 c -2.93625,-0.031 -5.95653,0.1437 -9.07422,0.5488 -47.02873,6.1113 -92.2616,28.825 -137.99609,40.8497 -20.37487,5.357 -40.86477,10.0058 -61.65625,13.4043 -13.68284,2.2364 -28.3647,2.6768 -41.10547,8.6269 -34.83754,16.2695 -35.59053,68.2378 -82.21094,68.8105 -56.45761,0.6935 -93.47266,-40.0997 -142.398434,-61.0234 -19.360619,-8.28 -37.979312,-9.4355 -58.72070288,-9.4355 v 27.8925 c 15.36387988,0 30.55562888,-0.6542 45.50781288,3.5645 57.892984,16.3345 99.509514,57.378 162.951174,56.6191 20.45034,-0.2444 41.36854,-9.1306 55.76562,-23.5039 13.59216,-13.5699 23.90359,-31.7115 41.125,-41.2246 20.79605,-11.4879 49.14355,-14.0862 71.9336,-20.6191 38.38696,-11.0037 77.72375,-27.9714 117.44336,-33.1328 50.99066,-6.6263 75.77917,43.6752 121.84765,53.8711 20.22524,4.4763 39.76934,3.1585 60.1875,4.5566 62.27281,4.2645 125.4259,-0.1309 187.91016,-0.1309 v -27.8925 H 726.11523 c -26.27757,0 -55.07572,2.9276 -80.74023,-3.6387 -42.40324,-10.8489 -67.26096,-57.6731 -111.30469,-58.1426 z m -39.90429,45.7481 c -27.29302,0 -53.49957,11.6819 -79.27344,19.1015 -32.0627,9.2299 -71.11094,15.6809 -99.82617,33.0684 -32.54973,19.7095 -49.11324,51.8794 -89.55079,58.918 -65.59332,11.4171 -113.90622,-30.4146 -173.226558,-48.0254 -16.665413,-4.9475 -34.194679,-4.4571 -51.38085888,-4.4571 v 27.8926 c 79.61934988,0 148.74013688,55.9764 229.01171688,42.4531 42.70876,-7.1949 70.07369,-33.0318 105.69922,-54.7617 36.19196,-22.0755 89.09324,-41.2909 132.12305,-40.4609 44.11937,0.851 72.87158,43.4329 115.97461,50.9355 35.95455,6.2582 72.49285,2.2699 108.63476,1.8399 57.72426,-0.6867 115.49969,-0.01 173.22852,-0.01 v -27.8887 H 701.16016 c -30.83669,0 -63.63872,3.1985 -93.95508,-3.2461 -42.88838,-9.1171 -68.64891,-55.3593 -113.03906,-55.3593 z m -42.57227,51.2656 c -84.83016,0 -140.51224,73.1652 -220.20508,85.9707 -61.04348,9.8089 -111.26884,-17.9411 -168.824217,-31.3086 -20.414265,-4.7414 -40.846353,-4.75 -61.65624988,-4.75 v 29.3613 c 22.22607088,0 44.09958588,-0.4094 66.06054688,3.5586 55.54676,10.0364 105.35075,29.7993 162.95117,22.4473 37.05127,-4.7291 71.1585,-20.1086 104.23047,-36.6445 25.11396,-12.557 53.34675,-28.8588 82.21094,-28.9981 48.96538,-0.2361 87.10064,34.7459 135.05859,39.3867 35.17457,3.4039 70.42268,0.25 105.69922,0.25 h 208.46094 v -29.3613 H 680.60742 c -34.82181,0 -71.20733,3.0121 -105.69922,-2.0957 -45.27434,-6.7043 -77.66151,-47.8164 -123.31445,-47.8164 z m -41.10547,57.3848 c -39.44524,2.5109 -74.19333,23.0132 -110.10156,37.3769 -27.8477,11.1395 -56.77005,18.1228 -86.61524,20.9629 -55.44754,5.2766 -106.83342,-21.0393 -161.482418,-21.7773 -11.377259,-0.1536 -39.54529,-7.4627 -49.0273432,0.047 -5.5290116,4.3791 -2.35351568,22.8188 -2.35351568,29.3203 27.40543488,0 54.93842888,-1.0117 82.20898488,1.7168 47.439302,4.7463 92.977352,15.8157 140.931642,11.2461 55.76585,-5.3142 108.47918,-34.8025 164.41992,-34.9824 43.00298,-0.1382 84.61806,18.9371 127.71875,21.8887 38.76494,2.6546 78.57803,0.1308 117.44141,0.1308 h 231.95117 v -29.3613 c -68.95754,0 -137.94378,-1.5778 -206.99414,-1.4668 -34.88839,0.056 -70.77368,4.5422 -105.69727,1.2188 -23.5182,-2.2381 -45.44494,-7.0688 -67.52929,-15.6231 -23.70556,-9.1822 -48.62695,-22.3678 -74.8711,-20.6972 z m -33.76367,61.5351 c -57.58802,0 -114.03677,23.7971 -171.75977,27.75 -39.16105,2.6817 -78.61224,-6.1992 -117.443356,-9.8945 -28.369456,-2.6998 -58.109493,-0.25 -86.61328088,-0.25 v 30.8301 l 110.10156688,0.057 104.23046,4.2891 124.78321,-11.6875 127.71875,7.3183 397.83789,0.024 v -30.8301 c -114.62778,0 -230.48425,4.9574 -344.98828,-0.057 -48.14068,-2.1081 -95.92456,-17.5488 -143.86719,-17.5488 z m -35.23438,54.3066 -117.4414,7.3184 -223.14062688,-1.4473 v 0 32.2969 H 865.58008 v -32.2969 l -406.64649,-0.023 z M 0.90820312,1327.1016 v 32.2968 H 865.58008 v -32.2968 z"
       clip-path="url(#clipPath2)" /></g><g
     id="layer3"
     style="display:inline"><path
       style="font-size:110px;font-family:'Lexend Deca';-inkscape-font-specification:'Lexend Deca';text-align:center;letter-spacing:0px;word-spacing:0px;text-anchor:middle;fill:#ffffff;stroke-width:6.11719"
       d="m -73.878097,1018.181 q -7.15,0 -13.09,-3.96 -5.83,-3.96 -9.35,-10.78 -3.52,-6.82001 -3.52,-15.40001 0,-8.69 3.52,-15.4 3.63,-6.82 9.68,-10.67 6.16,-3.85 13.75,-3.85 4.51,0 8.25,1.32 3.74,1.32 6.49,3.74 2.86,2.31 4.62,5.39 1.87,3.08 2.31,6.6 l -2.53,-0.88 v -14.96 h 11.44 v 57.75001 h -11.44 v -13.75 l 2.64,-0.77 q -0.66,2.97 -2.75,5.83 -1.98,2.75 -5.17,4.95 -3.08,2.2 -6.93,3.52 -3.74,1.32 -7.92,1.32 z m 2.97,-10.45 q 5.17,0 9.13,-2.53 3.96,-2.53 6.16,-6.93001 2.31,-4.51 2.31,-10.23 0,-5.61 -2.31,-10.01 -2.2,-4.4 -6.16,-6.93 -3.96,-2.53 -9.13,-2.53 -5.06,0 -9.02,2.53 -3.85,2.53 -6.16,6.93 -2.2,4.4 -2.2,10.01 0,5.72 2.2,10.23 2.31,4.40001 6.16,6.93001 3.96,2.53 9.02,2.53 z m 68.9699363,10.45 q -8.03,0 -14.4100003,-3.96 -6.27,-3.96 -10.01,-10.78 -3.63,-6.82001 -3.63,-15.29001 0,-8.47 3.63,-15.29 3.74,-6.82 10.01,-10.78 6.3800003,-3.96 14.4100003,-3.96 7.7,0 13.9699997,3.19 6.38,3.08 9.68,8.47 l -6.27,7.7 q -1.76,-2.53 -4.51,-4.62 -2.7499997,-2.09 -5.8299997,-3.3 -3.08,-1.21 -5.94000001,-1.21 -5.27999999,0 -9.46000029,2.64 -4.07,2.53 -6.49,7.04 -2.42,4.51 -2.42,10.12 0,5.61 2.53,10.12 2.53,4.40001 6.7100003,7.04001 4.18,2.64 9.23999999,2.64 2.97000001,0 5.72000001,-0.99 2.86,-0.99 5.4999997,-2.97 2.64,-1.98 4.95,-4.84001 l 6.27,7.70001 q -3.52,4.95 -10.12,8.14 -6.4899997,3.19 -13.5299997,3.19 z m 41.4699837,-1.1 v -72.49001 h 11.33 v 72.49001 z m -11.99,-46.75001 v -11 h 36.74 v 11 z m 66.000081,46.75001 -24.42,-57.75001 h 12.21 l 17.6,43.23001 -2.09,0.99 18.809996,-44.22001 h 11.66 l -25.63,57.75001 z m 69.410066,1.1 q -8.91,0 -15.84,-3.74 -6.82,-3.85 -10.78,-10.45 -3.85,-6.60001 -3.85,-15.18001 0,-6.82 2.2,-12.43 2.2,-5.61 6.05,-9.68 3.96,-4.18 9.35,-6.38 5.5,-2.31 11.88,-2.31 5.61,0 10.45,2.2 4.84,2.09 8.36,5.83 3.63,3.74 5.5,8.91 1.98,5.06 1.87,11.11 l -0.11,4.84 h -47.19 l -2.53,-9.02 h 39.93 l -1.65,1.87 v -2.64 q -0.33,-3.63 -2.42,-6.49 -2.09,-2.86 -5.28,-4.51 -3.19,-1.65 -6.93,-1.65 -5.94,0 -10.01,2.31 -4.07,2.2 -6.16,6.6 -2.09,4.29 -2.09,10.67 0,6.05 2.53,10.56 2.53,4.40001 7.15,6.82001 4.62,2.42 10.67,2.42 4.29,0 7.92,-1.43 3.74,-1.43 8.03,-5.17 l 5.72,8.03 q -2.64,2.64 -6.49,4.62 -3.74,1.98 -8.03,3.19 -4.18,1.1 -8.25,1.1 z m 37.51005,-1.1 v -57.75001 h 11.44 v 18.15 l -1.1,-4.4 q 1.21,-4.18 4.07,-7.59 2.97,-3.41 6.71,-5.39 3.85,-1.98 7.92,-1.98 1.87,0 3.52,0.33 1.76,0.33 2.75,0.77 l -2.97,12.32 q -1.32,-0.55 -2.97,-0.88 -1.54,-0.44 -3.08,-0.44 -2.97,0 -5.72,1.21 -2.64,1.1 -4.73,3.19 -1.98,1.98 -3.19,4.73 -1.21,2.64 -1.21,5.83 v 31.90001 z m 63.57999,1.1 q -7.26,0 -13.09,-2.53 -5.83,-2.53 -9.68,-7.48 l 7.7,-6.6 q 3.3,3.85 7.15,5.61 3.96,1.65 8.91,1.65 1.98,0 3.63,-0.44 1.76,-0.55 2.97,-1.54 1.32,-0.99 1.98,-2.31 0.66,-1.43 0.66,-3.08 0,-2.86001 -2.09,-4.62001 -1.1,-0.77 -3.52,-1.65 -2.31,-0.99 -6.05,-1.98 -6.38,-1.65 -10.45,-3.74 -4.07,-2.09 -6.27,-4.73 -1.65,-2.09 -2.42,-4.51 -0.77,-2.53 -0.77,-5.5 0,-3.63 1.54,-6.6 1.65,-3.08 4.4,-5.28 2.86,-2.31 6.6,-3.52 3.85,-1.21 8.14,-1.21 4.07,0 8.03,1.1 4.07,1.1 7.48,3.19 3.41,2.09 5.72,4.95 l -6.49,7.15 q -2.09,-2.09 -4.62,-3.63 -2.42,-1.65 -4.95,-2.53 -2.53,-0.88 -4.62,-0.88 -2.31,0 -4.18,0.44 -1.87,0.44 -3.19,1.32 -1.21,0.88 -1.87,2.2 -0.66,1.32 -0.66,2.97 0.11,1.43 0.66,2.75 0.66,1.21 1.76,2.09 1.21,0.88 3.63,1.87 2.42,0.99 6.16,1.87 5.5,1.43 9.02,3.19 3.63,1.65 5.72,3.85 2.2,2.09 3.08,4.84 0.88,2.75 0.88,6.16001 0,4.95 -2.86,8.91 -2.75,3.85 -7.48,6.05 -4.73,2.2 -10.56,2.2 z m 60.39,0 q -8.91,0 -15.84,-3.74 -6.82,-3.85 -10.78,-10.45 -3.85,-6.60001 -3.85,-15.18001 0,-6.82 2.2,-12.43 2.2,-5.61 6.05,-9.68 3.96,-4.18 9.35,-6.38 5.5,-2.31 11.88,-2.31 5.61,0 10.45,2.2 4.84,2.09 8.36,5.83 3.63,3.74 5.5,8.91 1.98,5.06 1.87,11.11 l -0.11,4.84 h -47.19 l -2.53,-9.02 h 39.93 l -1.65,1.87 v -2.64 q -0.33,-3.63 -2.42,-6.49 -2.09,-2.86 -5.28,-4.51 -3.19,-1.65 -6.93,-1.65 -5.94,0 -10.01,2.31 -4.07,2.2 -6.16,6.6 -2.09,4.29 -2.09,10.67 0,6.05 2.53,10.56 2.53,4.40001 7.15,6.82001 4.62,2.42 10.67,2.42 4.29,0 7.92,-1.43 3.74,-1.43 8.03,-5.17 l 5.72,8.03 q -2.64,2.64 -6.49,4.62 -3.74,1.98 -8.03,3.19 -4.18,1.1 -8.25,1.1 z"
       id="text14"
       transform="rotate(-30)"
       aria-label="actverse" /></g><g
     id="layer1"
     style="display:none"><path
       style="display:inline;fill:none;fill-opacity:1;stroke:#ff00ff;stroke-width:0.422192;stroke-dasharray:none;stroke-opacity:1"
       id="path2-5-5"
       d="M 587.85546,394.32839 405.25177,499.75468 222.64807,394.32839 222.64808,183.47581 405.25177,78.049515 587.85547,183.47581 Z"
       transform="matrix(2.3685957,0,0,2.3685868,-526.86328,-184.2897)" /><path
       style="display:inline;fill:none;fill-opacity:1;stroke:#ff00ff;stroke-width:0.426462;stroke-dasharray:none;stroke-opacity:1"
       id="path2-5-5-2"
       d="M 587.85546,394.32839 405.25177,499.75468 222.64807,394.32839 222.64808,183.47581 405.25177,78.049515 587.85547,183.47581 Z"
       transform="matrix(2.3448824,0,0,2.3448736,-517.25343,-177.43891)" /><path
       style="display:inline;fill:none;fill-opacity:1;stroke:#ff00ff;stroke-width:0.430819;stroke-dasharray:none;stroke-opacity:1"
       id="path2-5-5-2-7"
       d="M 587.85546,394.32839 405.25177,499.75468 222.64807,394.32839 222.64808,183.47581 405.25177,78.049515 587.85547,183.47581 Z"
       transform="matrix(2.321169,0,0,2.3211603,-507.64353,-170.58808)" /><path
       style="display:inline;fill:none;fill-opacity:1;stroke:#ff00ff;stroke-width:0.435266;stroke-dasharray:none;stroke-opacity:1"
       id="path2-5-5-2-7-6"
       d="M 587.85546,394.32839 405.25177,499.75468 222.64807,394.32839 222.64808,183.47581 405.25177,78.049515 587.85547,183.47581 Z"
       transform="matrix(2.2974557,0,0,2.2974471,-498.03367,-163.73729)" /><path
       style="display:inline;fill:none;fill-opacity:1;stroke:#ff00ff;stroke-width:0.439805;stroke-dasharray:none;stroke-opacity:1"
       id="path2-5-5-2-7-6-6"
       d="M 587.85546,394.32839 405.25177,499.75468 222.64807,394.32839 222.64808,183.47581 405.25177,78.049515 587.85547,183.47581 Z"
       transform="matrix(2.2737423,0,0,2.2737338,-488.42378,-156.88647)" /><path
       style="display:inline;fill:none;fill-opacity:1;stroke:#ff00ff;stroke-width:0.44444;stroke-dasharray:none;stroke-opacity:1"
       id="path2-5-5-2-7-6-6-9"
       d="M 587.85546,394.32839 405.25177,499.75468 222.64807,394.32839 222.64808,183.47581 405.25177,78.049515 587.85547,183.47581 Z"
       transform="matrix(2.250029,0,0,2.2500206,-478.81392,-150.03568)" /><path
       style="display:inline;fill:none;fill-opacity:1;stroke:#ff00ff;stroke-width:0.449174;stroke-dasharray:none;stroke-opacity:1"
       id="path2-5-5-2-7-6-6-9-3"
       d="M 587.85546,394.32839 405.25177,499.75468 222.64807,394.32839 222.64808,183.47581 405.25177,78.049515 587.85547,183.47581 Z"
       transform="matrix(2.2263156,0,0,2.2263073,-469.20402,-143.18485)" /><path
       style="display:inline;fill:none;fill-opacity:1;stroke:#ff00ff;stroke-width:0.45401;stroke-dasharray:none;stroke-opacity:1"
       id="path2-5-5-2-7-6-6-9-3-2"
       d="M 587.85546,394.32839 405.25177,499.75468 222.64807,394.32839 222.64808,183.47581 405.25177,78.049515 587.85547,183.47581 Z"
       transform="matrix(2.2026023,0,0,2.2025941,-459.59417,-136.33406)" /><path
       style="display:inline;fill:none;fill-opacity:1;stroke:#ff00ff;stroke-width:0.458951;stroke-dasharray:none;stroke-opacity:1"
       id="path2-5-5-2-7-6-6-9-3-2-7"
       d="M 587.85546,394.32839 405.25177,499.75468 222.64807,394.32839 222.64808,183.47581 405.25177,78.049515 587.85547,183.47581 Z"
       transform="matrix(2.1788889,0,0,2.1788808,-449.98427,-129.48324)" /><path
       style="display:inline;fill:none;fill-opacity:1;stroke:#ff00ff;stroke-width:0.464001;stroke-dasharray:none;stroke-opacity:1"
       id="path2-5-5-2-7-6-6-9-3-2-7-2"
       d="M 587.85546,394.32839 405.25177,499.75468 222.64807,394.32839 222.64808,183.47581 405.25177,78.049515 587.85547,183.47581 Z"
       transform="matrix(2.1551756,0,0,2.1551676,-440.37441,-122.63245)" /><path
       style="display:inline;fill:none;fill-opacity:1;stroke:#ff00ff;stroke-width:0.469163;stroke-dasharray:none;stroke-opacity:1"
       id="path2-5-5-2-7-6-6-9-3-2-7-2-9"
       d="M 587.85546,394.32839 405.25177,499.75468 222.64807,394.32839 222.64808,183.47581 405.25177,78.049515 587.85547,183.47581 Z"
       transform="matrix(2.1314622,0,0,2.1314543,-430.76451,-115.78162)" /><path
       style="display:inline;fill:none;fill-opacity:1;stroke:#ff00ff;stroke-width:0.474441;stroke-dasharray:none;stroke-opacity:1"
       id="path2-5-5-2-7-6-6-9-3-2-7-2-9-4"
       d="M 587.85546,394.32839 405.25177,499.75468 222.64807,394.32839 222.64808,183.47581 405.25177,78.049515 587.85547,183.47581 Z"
       transform="matrix(2.1077489,0,0,2.1077411,-421.15466,-108.93083)" /><path
       style="display:inline;fill:none;fill-opacity:1;stroke:#ff00ff;stroke-width:0.479839;stroke-dasharray:none;stroke-opacity:1"
       id="path2-5-5-2-7-6-6-9-3-2-7-2-9-4-6"
       d="M 587.85546,394.32839 405.25177,499.75468 222.64807,394.32839 222.64808,183.47581 405.25177,78.049515 587.85547,183.47581 Z"
       transform="matrix(2.0840355,0,0,2.0840278,-411.54476,-102.08001)" /><path
       style="display:inline;fill:none;fill-opacity:1;stroke:#ff00ff;stroke-width:0.485362;stroke-dasharray:none;stroke-opacity:1"
       id="path2-5-5-2-7-6-6-9-3-2-7-2-9-4-6-3"
       d="M 587.85546,394.32839 405.25177,499.75468 222.64807,394.32839 222.64808,183.47581 405.25177,78.049515 587.85547,183.47581 Z"
       transform="matrix(2.0603222,0,0,2.0603146,-401.9349,-95.229214)" /><path
       style="display:inline;fill:none;fill-opacity:1;stroke:#ff00ff;stroke-width:0.491013;stroke-dasharray:none;stroke-opacity:1"
       id="path2-5-5-2-7-6-6-9-3-2-7-2-9-4-6-3-1"
       d="M 587.85546,394.32839 405.25177,499.75468 222.64807,394.32839 222.64808,183.47581 405.25177,78.049515 587.85547,183.47581 Z"
       transform="matrix(2.0366088,0,0,2.0366013,-392.32501,-88.378392)" /><path
       style="display:inline;fill:none;fill-opacity:1;stroke:#ff00ff;stroke-width:0.496797;stroke-dasharray:none;stroke-opacity:1"
       id="path2-5-5-2-7-6-6-9-3-2-7-2-9-4-6-3-1-7"
       d="M 587.85546,394.32839 405.25177,499.75468 222.64807,394.32839 222.64808,183.47581 405.25177,78.049515 587.85547,183.47581 Z"
       transform="matrix(2.0128955,0,0,2.0128881,-382.71515,-81.527599)" /><path
       style="display:inline;fill:none;fill-opacity:1;stroke:#ff00ff;stroke-width:0.502719;stroke-dasharray:none;stroke-opacity:1"
       id="path2-5-5-2-7-6-6-9-3-2-7-2-9-4-6-3-1-7-9"
       d="M 587.85546,394.32839 405.25177,499.75468 222.64807,394.32839 222.64808,183.47581 405.25177,78.049515 587.85547,183.47581 Z"
       transform="matrix(1.9891821,0,0,1.9891748,-373.10525,-74.676777)" /><path
       style="display:inline;fill:none;fill-opacity:1;stroke:#ff00ff;stroke-width:0.508784;stroke-dasharray:none;stroke-opacity:1"
       id="path2-5-5-2-7-6-6-9-3-2-7-2-9-4-6-3-1-7-9-5"
       d="M 587.85546,394.32839 405.25177,499.75468 222.64807,394.32839 222.64808,183.47581 405.25177,78.049515 587.85547,183.47581 Z"
       transform="matrix(1.9654688,0,0,1.9654616,-363.49539,-67.825983)" /><path
       style="display:inline;fill:none;fill-opacity:1;stroke:#ff00ff;stroke-width:0.514997;stroke-dasharray:none;stroke-opacity:1"
       id="path2-5-5-2-7-6-6-9-3-2-7-2-9-4-6-3-1-7-9-5-7"
       d="M 587.85546,394.32839 405.25177,499.75468 222.64807,394.32839 222.64808,183.47581 405.25177,78.049515 587.85547,183.47581 Z"
       transform="matrix(1.9417554,0,0,1.9417483,-353.8855,-60.975161)" /><path
       style="display:inline;fill:none;fill-opacity:1;stroke:#ff00ff;stroke-width:0.521364;stroke-dasharray:none;stroke-opacity:1"
       id="path2-5-5-2-7-6-6-9-3-2-7-2-9-4-6-3-1-7-9-5-7-0"
       d="M 587.85546,394.32839 405.25177,499.75468 222.64807,394.32839 222.64808,183.47581 405.25177,78.049515 587.85547,183.47581 Z"
       transform="matrix(1.9180421,0,0,1.9180351,-344.27564,-54.124368)" /><path
       style="display:inline;fill:none;fill-opacity:1;stroke:#ff00ff;stroke-width:0.52789;stroke-dasharray:none;stroke-opacity:1"
       id="path2-5-5-2-7-6-6-9-3-2-7-2-9-4-6-3-1-7-9-5-7-0-8"
       d="M 587.85546,394.32839 405.25177,499.75468 222.64807,394.32839 222.64808,183.47581 405.25177,78.049515 587.85547,183.47581 Z"
       transform="matrix(1.8943287,0,0,1.8943218,-334.66574,-47.273546)" /><path
       style="display:inline;fill:none;fill-opacity:1;stroke:#ff00ff;stroke-width:0.534582;stroke-dasharray:none;stroke-opacity:1"
       id="path2-5-5-2-7-6-6-9-3-2-7-2-9-4-6-3-1-7-9-5-7-0-8-1"
       d="M 587.85546,394.32839 405.25177,499.75468 222.64807,394.32839 222.64808,183.47581 405.25177,78.049515 587.85547,183.47581 Z"
       transform="matrix(1.8706154,0,0,1.8706086,-325.05589,-40.422752)" /><path
       style="display:inline;fill:none;fill-opacity:1;stroke:#ff00ff;stroke-width:0.541446;stroke-dasharray:none;stroke-opacity:1"
       id="path2-5-5-2-7-6-6-9-3-2-7-2-9-4-6-3-1-7-9-5-7-0-8-1-0"
       d="M 587.85546,394.32839 405.25177,499.75468 222.64807,394.32839 222.64808,183.47581 405.25177,78.049515 587.85547,183.47581 Z"
       transform="matrix(1.846902,0,0,1.8468953,-315.44599,-33.57193)" /><path
       style="display:inline;fill:none;fill-opacity:1;stroke:#ff00ff;stroke-width:0.548488;stroke-dasharray:none;stroke-opacity:1"
       id="path2-5-5-2-7-6-6-9-3-2-7-2-9-4-6-3-1-7-9-5-7-0-8-1-0-2"
       d="M 587.85546,394.32839 405.25177,499.75468 222.64807,394.32839 222.64808,183.47581 405.25177,78.049515 587.85547,183.47581 Z"
       transform="matrix(1.8231887,0,0,1.8231821,-305.83613,-26.721137)" /><path
       style="display:inline;fill:none;fill-opacity:1;stroke:#ff00ff;stroke-width:0.555716;stroke-dasharray:none;stroke-opacity:1"
       id="path2-5-5-2-7-6-6-9-3-2-7-2-9-4-6-3-1-7-9-5-7-0-8-1-0-2-9"
       d="M 587.85546,394.32839 405.25177,499.75468 222.64807,394.32839 222.64808,183.47581 405.25177,78.049515 587.85547,183.47581 Z"
       transform="matrix(1.7994753,0,0,1.7994688,-296.22624,-19.870315)" /><path
       style="display:inline;fill:none;fill-opacity:1;stroke:#ff00ff;stroke-width:0.563137;stroke-dasharray:none;stroke-opacity:1"
       id="path2-5-5-2-7-6-6-9-3-2-7-2-9-4-6-3-1-7-9-5-7-0-8-1-0-2-9-8"
       d="M 587.85546,394.32839 405.25177,499.75468 222.64807,394.32839 222.64808,183.47581 405.25177,78.049515 587.85547,183.47581 Z"
       transform="matrix(1.775762,0,0,1.7757556,-286.61638,-13.019522)" /><path
       style="display:inline;fill:none;fill-opacity:1;stroke:#ff00ff;stroke-width:0.570759;stroke-dasharray:none;stroke-opacity:1"
       id="path2-5-5-2-7-6-6-9-3-2-7-2-9-4-6-3-1-7-9-5-7-0-8-1-0-2-9-8-6"
       d="M 587.85546,394.32839 405.25177,499.75468 222.64807,394.32839 222.64808,183.47581 405.25177,78.049515 587.85547,183.47581 Z"
       transform="matrix(1.7520486,0,0,1.7520423,-277.00648,-6.1686994)" /><path
       style="display:inline;fill:none;fill-opacity:1;stroke:#ff00ff;stroke-width:0.57859;stroke-dasharray:none;stroke-opacity:1"
       id="path2-5-5-2-7-6-6-9-3-2-7-2-9-4-6-3-1-7-9-5-7-0-8-1-0-2-9-8-6-1"
       d="M 587.85546,394.32839 405.25177,499.75468 222.64807,394.32839 222.64808,183.47581 405.25177,78.049515 587.85547,183.47581 Z"
       transform="matrix(1.7283353,0,0,1.7283291,-267.39662,0.68209382)" /><path
       style="display:inline;fill:none;fill-opacity:1;stroke:#ff00ff;stroke-width:0.586639;stroke-dasharray:none;stroke-opacity:1"
       id="path2-5-5-2-7-6-6-9-3-2-7-2-9-4-6-3-1-7-9-5-7-0-8-1-0-2-9-8-6-1-9"
       d="M 587.85546,394.32839 405.25177,499.75468 222.64807,394.32839 222.64808,183.47581 405.25177,78.049515 587.85547,183.47581 Z"
       transform="matrix(1.7046219,0,0,1.7046158,-257.78673,7.532916)" /><path
       style="display:inline;fill:none;fill-opacity:1;stroke:#ff00ff;stroke-width:0.594915;stroke-dasharray:none;stroke-opacity:1"
       id="path2-5-5-2-7-6-6-9-3-2-7-2-9-4-6-3-1-7-9-5-7-0-8-1-0-2-9-8-6-1-9-7"
       d="M 587.85546,394.32839 405.25177,499.75468 222.64807,394.32839 222.64808,183.47581 405.25177,78.049515 587.85547,183.47581 Z"
       transform="matrix(1.6809086,0,0,1.6809026,-248.17687,14.383709)" /><path
       style="display:inline;fill:none;fill-opacity:1;stroke:#ff00ff;stroke-width:0.603428;stroke-dasharray:none;stroke-opacity:1"
       id="path2-5-5-2-7-6-6-9-3-2-7-2-9-4-6-3-1-7-9-5-7-0-8-1-0-2-9-8-6-1-9-7-5"
       d="M 587.85546,394.32839 405.25177,499.75468 222.64807,394.32839 222.64808,183.47581 405.25177,78.049515 587.85547,183.47581 Z"
       transform="matrix(1.6571952,0,0,1.6571893,-238.56697,21.234531)" /></g></svg>
